<?xml version="1.0" standalone="no"?>
<!DOCTYPE svg PUBLIC "-//W3C//DTD SVG 20010904//EN"
 "http://www.w3.org/TR/2001/REC-SVG-20010904/DTD/svg10.dtd">
<svg version="1.0" xmlns="http://www.w3.org/2000/svg"
 width="360.000000pt" height="360.000000pt" viewBox="0 0 360.000000 360.000000"
 preserveAspectRatio="xMidYMid meet">

<g transform="translate(0.000000,360.000000) scale(0.100000,-0.100000)"
fill="#000000" stroke="none">
<path d="M1843 2971 c-151 -52 -283 -205 -328 -381 -18 -67 -19 -271 -2 -297
6 -10 48 -13 152 -13 l144 0 18 -30 c9 -16 20 -30 24 -30 7 0 21 52 85 314 46
188 64 229 83 197 5 -7 11 -98 14 -202 4 -104 10 -274 14 -379 3 -104 9 -190
12 -190 4 0 42 80 86 178 84 189 91 202 109 201 6 0 35 -30 65 -66 48 -57 56
-64 63 -47 6 15 102 397 123 492 3 14 13 22 25 22 16 0 20 -7 20 -36 0 -32 11
-306 25 -598 3 -66 7 -121 9 -123 3 -3 25 55 81 218 l27 76 93 7 c51 4 151 6
221 5 l129 -1 7 38 c22 121 1 268 -54 383 -40 85 -158 204 -243 246 -55 27
-69 30 -165 30 -102 0 -109 -1 -180 -37 -41 -20 -98 -57 -126 -82 -46 -40 -53
-44 -65 -30 -29 35 -145 109 -205 131 -80 29 -185 31 -261 4z"/>
<path d="M1941 2385 c-60 -246 -60 -245 -77 -245 -8 0 -28 23 -45 50 l-31 50
-130 0 -129 0 6 -22 c41 -138 182 -331 345 -475 150 -132 408 -313 446 -313
20 0 202 119 317 208 131 100 271 241 350 354 40 56 127 222 127 242 0 3 -89
6 -199 6 l-199 0 -61 -171 c-34 -94 -64 -181 -67 -194 -9 -36 -30 -50 -42 -28
-5 10 -15 172 -22 361 -7 188 -16 339 -19 336 -3 -3 -28 -94 -56 -202 -36
-141 -54 -198 -65 -199 -8 -1 -40 29 -70 67 -30 38 -58 69 -61 69 -4 1 -25
-41 -48 -91 -121 -277 -140 -313 -163 -310 -12 1 -23 4 -25 6 -2 2 -8 111 -14
242 -5 132 -13 284 -17 339 l-7 100 -44 -180z"/>
<path d="M1410 1476 c-64 -14 -119 -41 -175 -86 -108 -86 -379 -224 -629 -321
-161 -63 -165 -67 -148 -160 38 -203 189 -307 456 -311 l94 -2 48 43 c153 134
424 182 854 151 69 -5 166 -12 215 -15 l90 -7 119 77 c144 93 253 152 496 268
199 95 242 122 265 167 19 37 19 109 0 137 -23 33 -96 57 -152 49 -66 -10
-214 -68 -336 -132 -316 -168 -367 -183 -617 -190 -96 -2 -170 -2 -165 0 6 3
89 14 185 26 210 25 240 32 274 66 33 34 33 68 0 99 -38 36 -81 45 -239 56
-189 12 -334 33 -430 62 -108 34 -141 37 -205 23z"/>
</g>
</svg>
